<svg width="58" height="36" viewBox="0 0 58 36" fill="none" xmlns="http://www.w3.org/2000/svg">
<path d="M57.7896 14.5415C55.0522 9.87715 52.3119 5.21577 49.5655 0.557371C49.2159 -0.0351387 48.7468 -0.152453 48.134 0.192064C46.0746 1.35035 44.0167 2.51607 41.9648 3.68772C41.3928 4.01442 41.2718 4.47922 41.5835 5.05391C41.7908 5.43704 42.0208 5.80977 42.2402 6.18695C40.8723 6.84777 40.4562 6.88044 39.117 6.44237C37.0288 5.75779 34.9407 5.07767 32.857 4.3827C31.9794 4.09015 31.0669 3.98472 30.2907 4.4911C29.2299 5.1831 28.3341 5.04797 27.3264 4.39606C26.2687 3.71297 25.0808 3.69069 24.0065 4.36191C22.4313 5.34645 20.7441 5.73403 18.901 5.56772C18.6952 5.5499 18.4864 5.56772 18.2791 5.56772C17.5921 5.56772 16.9036 5.56772 16.1879 5.56772C16.2152 5.44595 16.2167 5.38952 16.2394 5.34497C16.769 4.30251 16.6963 4.05154 15.6901 3.48279C13.8122 2.42103 11.9344 1.35778 10.0565 0.298983C9.19101 -0.189577 8.80363 -0.0900832 8.31185 0.745964C6.49302 3.83622 4.67873 6.93093 2.85384 10.0182C1.91114 11.6146 0.951785 13.2005 0 14.791V15.4577C0.140725 15.6018 0.258752 15.7874 0.428228 15.8854C2.56029 17.1061 4.69689 18.3208 6.84256 19.5192C7.32678 19.7894 7.73382 19.6573 8.07277 19.2073C8.15902 19.093 8.24376 18.9771 8.34514 18.839C9.57081 19.5429 10.7708 20.2334 11.9768 20.9254C11.7528 22.0748 11.892 23.1262 12.635 24.0469C13.3885 24.9809 14.4054 25.3804 15.6174 25.3923C15.619 26.4392 15.9488 27.3213 16.6706 28.043C17.406 28.7766 18.3396 29.0676 19.3671 29.0988C19.4185 30.269 19.7938 31.2298 20.676 31.95C21.5506 32.6643 22.5674 32.89 23.6932 32.7252C23.7402 32.8781 23.775 33.0014 23.8158 33.1216C24.3 34.5235 25.7269 35.3773 27.2008 35.0937C27.5776 35.0209 27.8136 35.0729 28.1057 35.312C29.7157 36.6321 32.1186 35.9698 32.8358 34.0305C32.8918 33.879 32.9478 33.729 33.0008 33.5864C35.2085 33.8641 37.1938 32.5529 37.3209 29.9156C38.3423 29.9512 39.235 29.6171 39.972 28.9147C40.7285 28.193 41.0433 27.2856 41.0478 26.2744C43.938 26.212 45.8052 23.447 44.2013 20.6834C45.84 19.7597 47.4803 18.8346 49.1418 17.8976C49.3899 18.3163 49.6048 18.6846 49.8272 19.0469C50.2207 19.6885 50.6353 19.8117 51.2874 19.4464C53.3317 18.2985 55.3715 17.1417 57.4082 15.9804C58.0407 15.6196 58.1618 15.1682 57.7926 14.5385L57.7896 14.5415ZM12.9074 19.3736C11.6893 18.6742 10.4878 17.9852 9.25002 17.2739C9.34535 17.0912 9.42101 16.9293 9.5118 16.7734C11.2519 13.8094 13.0027 10.8498 14.7262 7.87538C14.9456 7.4982 15.1922 7.37049 15.6159 7.37049C17.3894 7.37346 19.1643 7.33188 20.9378 7.34079C21.7352 7.34524 22.4615 7.17447 23.1546 6.7958C23.7144 6.48989 24.3015 6.23299 24.8599 5.92708C25.5257 5.56326 26.1128 5.69394 26.7529 6.16171C25.8964 6.57751 25.1065 6.99033 24.2909 7.34821C23.1606 7.8442 22.4661 8.64906 22.1755 9.84299C21.8835 11.0458 21.487 12.2234 21.1708 13.4203C20.8545 14.6187 21.596 15.7072 22.8444 15.9047C23.5888 16.022 24.3348 16.1319 25.0854 16.1943C25.901 16.2626 26.5607 15.9403 27.0056 15.2558C27.4505 14.5697 27.8923 13.8792 28.3009 13.1708C28.6549 12.559 29.1376 12.2828 29.873 12.3244C30.6659 12.369 31.3605 12.5368 32.0096 13.0431C33.4698 14.1821 34.983 15.2543 36.5249 16.3918C35.1419 17.1328 34.4776 18.2599 34.4368 19.7627C32.0792 19.9513 30.8702 21.1378 30.6735 23.3727C30.1273 23.5138 29.5901 23.6593 29.0484 23.784C28.9576 23.8048 28.8108 23.7737 28.7472 23.7098C27.9922 22.9525 27.0495 22.6391 26.0084 22.605C25.5196 20.0241 24.6269 19.1479 22.23 18.8925C22.2013 18.6475 22.1907 18.3906 22.1377 18.1426C21.8502 16.7794 21.0437 15.829 19.6894 15.4117C18.3124 14.9855 17.0807 15.3167 16.0517 16.3116C15.1363 17.1952 14.2359 18.0921 13.328 18.9816C13.1964 19.1108 13.0587 19.2311 12.9043 19.3736H12.9074ZM16.5405 23.1737C16.2636 23.4306 15.8187 23.5153 15.6144 23.6058C14.7171 23.5375 14.1814 23.2509 13.8788 22.6183C13.5565 21.9471 13.6246 21.2878 14.1345 20.7621C15.227 19.6365 16.3498 18.5376 17.4953 17.4639C18.1626 16.8388 19.1976 16.9056 19.8498 17.5367C20.505 18.1708 20.5882 19.1776 19.9466 19.8429C18.845 20.9848 17.7056 22.0941 16.5405 23.1737ZM20.2841 26.8921C20.0208 27.1357 19.5895 27.2055 19.2354 27.3554C18.4925 27.2574 17.9629 26.9545 17.6496 26.3353C17.3273 25.6952 17.3591 25.0314 17.8494 24.5206C18.9737 23.3489 20.1297 22.204 21.3297 21.1066C21.9834 20.5097 23.0214 20.6314 23.6357 21.2521C24.2561 21.8788 24.35 22.8678 23.728 23.5197C22.6204 24.681 21.4628 25.7992 20.2856 26.8921H20.2841ZM24.3348 30.3566C23.5677 31.1125 22.4691 31.1719 21.7549 30.4947C21.0391 29.8146 21.0634 28.7291 21.829 27.9702C22.864 26.9426 23.9036 25.9195 24.9552 24.9097C25.4833 24.4018 26.2596 24.2771 26.8906 24.577C27.5412 24.8859 27.8878 25.4012 28.027 26.1957C27.7818 26.6129 27.6063 27.0926 27.281 27.4356C26.3307 28.438 25.3199 29.3869 24.3348 30.3566ZM27.3657 33.1009C27.1902 33.2642 26.9012 33.3102 26.5259 33.4691C26.2263 33.2152 25.8541 32.9969 25.6256 32.6776C25.3532 32.296 25.45 31.8282 25.7693 31.4986C26.6394 30.6031 27.5261 29.7225 28.4446 28.8761C28.8713 28.4825 29.587 28.5702 29.9835 28.9711C30.3905 29.3824 30.4586 30.0522 30.044 30.4813C29.177 31.3798 28.2766 32.2455 27.3657 33.0994V33.1009ZM30.8203 33.8686C30.383 34.2948 29.7807 34.3007 29.3086 33.9191C29.8276 33.4068 30.3512 32.8915 30.8702 32.3792C31.2697 32.8573 31.2591 33.4394 30.8188 33.8686H30.8203ZM35.3114 30.7546C35.0496 31.3857 34.5503 31.7451 33.8481 31.8074C33.0658 31.8787 32.5241 31.4763 32.0777 30.9135C32.0142 30.8333 32.0233 30.6744 32.0414 30.5586C32.3456 28.6221 31.6147 27.4475 29.6884 26.8357C29.6884 26.4377 29.6597 26.0665 29.7036 25.7041C29.7187 25.5749 29.8882 25.3997 30.0213 25.3611C30.6659 25.1725 31.2591 25.3166 31.7388 25.7784C32.8146 26.8134 33.8845 27.8544 34.9361 28.9117C35.4536 29.4314 35.5943 30.073 35.3114 30.7531V30.7546ZM38.1879 27.9687C37.5221 28.2791 36.8609 28.1945 36.3464 27.7163C35.1843 26.6352 34.0479 25.5245 32.9493 24.381C32.3244 23.7306 32.4227 22.6881 33.0704 22.0719C33.7089 21.4645 34.7258 21.3828 35.378 21.9872C36.5552 23.0787 37.6977 24.2102 38.8114 25.3641C39.061 25.6225 39.1382 26.0427 39.2199 26.2224C39.1715 27.1357 38.8461 27.6613 38.1894 27.9673L38.1879 27.9687ZM42.0026 24.2503C41.3747 24.5533 40.7013 24.5473 40.1974 24.084C38.9748 22.9569 37.7824 21.7927 36.6384 20.5884C36.0453 19.9632 36.1678 18.9727 36.7792 18.3668C37.3935 17.7595 38.4512 17.6511 39.0928 18.2421C40.2897 19.3439 41.4428 20.4933 42.5716 21.662C42.8213 21.9204 42.8893 22.3451 43.0422 22.6941C42.9453 23.4232 42.6367 23.9444 42.0026 24.2503ZM42.8893 19.3514C42.8167 19.2949 42.7668 19.2667 42.729 19.2266C39.7162 16.0354 35.9288 13.7886 32.4469 11.1735C30.5706 9.76429 27.8847 10.4073 26.6575 12.3749C26.3141 12.9273 25.9933 13.4961 25.6135 14.0232C25.4909 14.1925 25.2079 14.3559 25.0067 14.347C24.3348 14.3143 23.669 14.2014 23.035 14.1242C22.9881 14.0381 22.9488 13.9995 22.9563 13.9742C23.3528 12.5531 23.7296 11.1245 24.1744 9.71677C24.2546 9.46432 24.5921 9.24157 24.8629 9.10644C26.8785 8.10556 28.897 7.10765 30.9429 6.16914C31.309 6.00133 31.8432 5.99391 32.2366 6.11419C34.3399 6.75125 36.4387 7.40761 38.5057 8.14862C39.8796 8.64015 41.181 8.66985 42.499 8.04913C42.7002 7.95409 42.9211 7.89766 43.1965 7.79965C44.8716 10.6479 46.527 13.4634 48.2187 16.3413C46.4211 17.357 44.6492 18.3564 42.8848 19.3528L42.8893 19.3514Z" fill="white"/>
</svg>
